<svg id="Calque_1" data-name="Calque 1" xmlns="http://www.w3.org/2000/svg" viewBox="0 0 60 60">
  <defs>
    <style>
      .cls-1 {
        fill: none;
        stroke: #e74c3c;
        stroke-linecap: round;
        stroke-miterlimit: 10;
        stroke-width: 2px;
      }
    </style>
  </defs>
  <title>icone-wheel</title>
  <g>
    <path class="cls-1" d="M12,25.83h-4A2.74,2.74,0,0,0,5.2,28.57v2.86a2.74,2.74,0,0,0,2.73,2.74h4a18.71,18.71,0,0,0,2.6,6.18l-3,3a2.72,2.72,0,0,0,0,3.86l2,2a2.73,2.73,0,0,0,3.87,0l3-3a18.69,18.69,0,0,0,5.8,2.36v4a2.74,2.74,0,0,0,2.74,2.73h2.86a2.74,2.74,0,0,0,2.74-2.73v-4a18.52,18.52,0,0,0,6-2.48l2.85,2.85a2.73,2.73,0,0,0,3.87,0l2-2a2.73,2.73,0,0,0,0-3.87l-2.85-2.85a18.52,18.52,0,0,0,2.48-6h4a2.74,2.74,0,0,0,2.73-2.74V28.57a2.74,2.74,0,0,0-2.73-2.74H49A18.69,18.69,0,0,0,46.67,20L49.4,17.3a2.73,2.73,0,0,0,0-3.87l-2-2a2.75,2.75,0,0,0-3.87,0l-2.67,2.67a18.46,18.46,0,0,0-6.17-2.6v-4A2.74,2.74,0,0,0,31.93,4.7H29.07a2.74,2.74,0,0,0-2.74,2.73v4a18.52,18.52,0,0,0-6,2.48L17.49,11.1a2.73,2.73,0,0,0-3.87,0l-2,2a2.73,2.73,0,0,0,0,3.87l2.85,2.85A18.52,18.52,0,0,0,12,25.83Z"/>
    <path class="cls-1" d="M39.86,33.47A9.55,9.55,0,0,0,40.5,30a9.73,9.73,0,0,0-.55-3.25"/>
    <path class="cls-1" d="M39.57,25.83c0.14,0.3.27,0.61,0.38,0.92"/>
    <path class="cls-1" d="M39.57,34.17a6.07,6.07,0,0,0,.29-0.7"/>
    <path class="cls-1" d="M39.57,25.83a9.79,9.79,0,0,0-4.9-4.76"/>
    <path class="cls-1" d="M39.57,34.17a9.79,9.79,0,0,1-4.9,4.76"/>
    <path class="cls-1" d="M34.09,20.83a5.89,5.89,0,0,1,.58.24"/>
    <path class="cls-1" d="M33.86,39.25a7.18,7.18,0,0,0,.81-0.32"/>
    <path class="cls-1" d="M27.5,39.21a9.63,9.63,0,0,0,3.24.55,9.76,9.76,0,0,0,3.12-.51"/>
    <path class="cls-1" d="M34.08,20.83a9.74,9.74,0,0,0-6.81.05"/>
    <path class="cls-1" d="M26.33,21.29a9.88,9.88,0,0,1,.94-0.41"/>
    <path class="cls-1" d="M26.33,38.71a10,10,0,0,0,1.17.5"/>
    <path class="cls-1" d="M26.33,21.29a9.82,9.82,0,0,0-4.42,4.54"/>
    <path class="cls-1" d="M26.33,38.71a9.82,9.82,0,0,1-4.42-4.54"/>
    <path class="cls-1" d="M21.49,26.88a9.57,9.57,0,0,1,.42-1.05"/>
    <path class="cls-1" d="M21.57,33.35a8.33,8.33,0,0,0,.34.82"/>
    <path class="cls-1" d="M21.49,26.88a9.8,9.8,0,0,0,.08,6.47"/>
  </g>
</svg>
