<?xml version="1.0" encoding="utf-8"?>
<!-- Generator: Adobe Illustrator 19.2.0, SVG Export Plug-In . SVG Version: 6.00 Build 0)  -->
<svg version="1.1" id="Calque_1" xmlns="http://www.w3.org/2000/svg" xmlns:xlink="http://www.w3.org/1999/xlink" x="0px" y="0px"
	 viewBox="0 0 60 60" style="enable-background:new 0 0 60 60;" xml:space="preserve">
<style type="text/css">
	.st0{fill:none;stroke:#E74C3C;stroke-width:2;stroke-miterlimit:10;}
	.st1{fill:none;stroke:#E74C3C;stroke-width:2;stroke-linecap:round;stroke-miterlimit:10;}
	.st2{fill:none;stroke:#E74C3C;stroke-width:7;stroke-linecap:round;stroke-miterlimit:10;}
</style>
<g>
	<g>
		<polyline class="st0" points="-42,-209.1 -42,-181.3 -54.8,-181.3 		"/>
		<polyline class="st0" points="-64.8,-181.3 -78.4,-181.3 -78.4,-209.1 		"/>
		<polyline class="st0" points="-65.1,-181.3 -65.1,-192.2 -54.2,-192.2 -54.2,-181.3 		"/>
	</g>
	<path class="st0" d="M-60.2-181.3"/>
	<polyline class="st0" points="-82.8,-209.1 -60.2,-231.9 -37.2,-209.1 	"/>
	<path class="st0" d="M-60-195.8"/>
	<polygon class="st0" points="-49.3,-221 -42,-215 -42,-228.3 -49.3,-228.3 	"/>
</g>
<g id="XMLID_1_">
	<path class="st1" d="M16.3-210.7h-4c-1.5,0-2.7,1.2-2.7,2.7v2.9c0,1.5,1.2,2.7,2.7,2.7h4c0.5,2.2,1.4,4.3,2.6,6.2l-3,3
		c-1.1,1.1-1.1,2.8,0,3.9l2,2c1.1,1.1,2.8,1.1,3.9,0l3-3c1.8,1.1,3.7,1.9,5.8,2.4v4c0,1.5,1.2,2.7,2.7,2.7h2.9
		c1.5,0,2.7-1.2,2.7-2.7v-4c2.2-0.5,4.2-1.3,6-2.5l2.9,2.8c1.1,1.1,2.8,1.1,3.9,0l2-2c1.1-1.1,1.1-2.8,0-3.9l-2.9-2.8
		c1.2-1.8,2-3.8,2.5-6h4c1.5,0,2.7-1.2,2.7-2.7v-2.9c0-1.5-1.2-2.7-2.7-2.7h-4c-0.5-2.1-1.3-4-2.4-5.8l2.7-2.7
		c1.1-1.1,1.1-2.8,0-3.9l-2-2c-1.1-1.1-2.8-1.1-3.9,0l-2.7,2.7c-1.9-1.2-3.9-2.1-6.2-2.6v-4c0-1.5-1.2-2.7-2.7-2.7h-2.9
		c-1.5,0-2.7,1.2-2.7,2.7v4c-2.2,0.5-4.2,1.3-6,2.5l-2.9-2.9c-1.1-1.1-2.8-1.1-3.9,0l-2,2c-1.1,1.1-1.1,2.8,0,3.9l2.9,2.9
		C17.7-214.9,16.8-212.9,16.3-210.7z"/>
	<path class="st1" d="M44.2-203.1c0.4-1.1,0.6-2.2,0.6-3.5c0-1.1-0.2-2.2-0.5-3.3"/>
	<path class="st1" d="M43.9-210.7c0.1,0.3,0.3,0.6,0.4,0.9"/>
	<path class="st1" d="M43.9-202.4c0.1-0.2,0.2-0.5,0.3-0.7"/>
	<path class="st1" d="M43.9-210.7c-1-2.1-2.7-3.8-4.9-4.8"/>
	<path class="st1" d="M43.9-202.4c-1,2.1-2.7,3.8-4.9,4.8"/>
	<path class="st1" d="M38.5-215.7c0.2,0.1,0.4,0.1,0.6,0.2"/>
	<path class="st1" d="M38.2-197.3c0.3-0.1,0.5-0.2,0.8-0.3"/>
	<path class="st1" d="M31.9-197.3c1,0.4,2.1,0.6,3.2,0.6s2.1-0.2,3.1-0.5"/>
	<path class="st1" d="M38.5-215.7c-1-0.4-2.2-0.6-3.3-0.6c-1.2,0-2.4,0.2-3.5,0.6"/>
	<path class="st1" d="M30.7-215.3c0.3-0.1,0.6-0.3,0.9-0.4"/>
	<path class="st1" d="M30.7-197.8c0.4,0.2,0.8,0.4,1.2,0.5"/>
	<path class="st1" d="M30.7-215.3c-1.9,1-3.5,2.6-4.4,4.5"/>
	<path class="st1" d="M30.7-197.8c-1.9-1-3.5-2.6-4.4-4.5"/>
	<path class="st1" d="M25.9-209.7c0.1-0.4,0.3-0.7,0.4-1"/>
	<path class="st1" d="M25.9-203.2c0.1,0.3,0.2,0.5,0.3,0.8"/>
	<path class="st1" d="M25.9-209.7c-0.3,1-0.5,2-0.5,3.1c0,1.2,0.2,2.3,0.6,3.3"/>
</g>
<g id="XMLID_2_">
	<g>
		<polygon class="st1" points="-34,-146.4 -34,-106.6 -34.8,-106.6 -85.2,-106.6 -85.9,-106.6 -85.9,-146.4 		"/>
		<line class="st1" x1="-55.3" y1="-127" x2="-34.8" y2="-106.6"/>
		<line class="st1" x1="-85.2" y1="-106.6" x2="-64.6" y2="-127"/>
		<polyline class="st1" points="-85.9,-146.4 -64.6,-127 -60,-122.7 		"/>
		<polyline class="st1" points="-34,-146.4 -55.3,-127 -60,-122.7 		"/>
	</g>
</g>
<path class="st1" d="M54.3-102.6H5.7c-1,0-1.7-0.7-1.7-1.7v-36.6c0-0.9,0.7-1.7,1.7-1.7h48.6c0.9,0,1.7,0.8,1.7,1.7v36.6
	C56-103.3,55.2-102.6,54.3-102.6z"/>
<path class="st1" d="M38.3-142.6H21.6c-0.9,0-1.7-0.7-1.7-1.7v-4.7c0-0.9,0.7-1.7,1.7-1.7h16.7c0.9,0,1.7,0.7,1.7,1.7v4.7
	C40-143.3,39.2-142.6,38.3-142.6z"/>
<line class="st1" x1="4" y1="-129.1" x2="56" y2="-129.1"/>
<rect x="26" y="-129.1" class="st1" width="8" height="5.5"/>
<g id="XMLID_3_">
	<polygon class="st1" points="-74.2,-48.1 -87.3,-54 -60.7,-64.8 -33.2,-54 -47.2,-47.9 -60.7,-42.1 	"/>
	<path class="st1" d="M-47.2-47.9v13.8c0,0-5.7,5.7-13.5,5.6c-9.9,0-13.5-5.5-13.5-5.5v-14.1l13.4,6L-47.2-47.9z"/>
</g>
<line class="st1" x1="-82.9" y1="-52" x2="-82.9" y2="-26.5"/>
<g>
	<path class="st1" d="M29.9-59.2c-1.3-9.6-13.2-15.4-20-7.2c-7.9,9.5,1,21.8,7.8,29c4.3,4.5,9.9,8.3,11.9,14.5"/>
	<path class="st1" d="M30.1-59.2c1.4-9.6,13.2-15.4,20-7.2c7.9,9.5-1,21.8-7.8,29c-4.3,4.5-9.9,8.3-11.9,14.5"/>
</g>
<g>
	<line class="st2" x1="8.4" y1="46.8" x2="51.6" y2="46.8"/>
	<line class="st2" x1="8.4" y1="30" x2="51.6" y2="30"/>
	<line class="st2" x1="8.4" y1="13.2" x2="51.6" y2="13.2"/>
</g>
</svg>
