<svg id="Calque_1" data-name="Calque 1" xmlns="http://www.w3.org/2000/svg" viewBox="0 0 150.84 283.64">
  <defs>
    <style>
      .cls-1, .cls-2, .cls-3 {
        fill: none;
        stroke: #e74c3c;
        stroke-miterlimit: 10;
      }

      .cls-1, .cls-2 {
        stroke-width: 2px;
      }

      .cls-2, .cls-3 {
        stroke-linecap: round;
      }

      .cls-3 {
        stroke-width: 7px;
      }
    </style>
  </defs>
  <title>icone-hamburger</title>
  <g>
    <g>
      <polyline class="cls-1" points="47.84 24.21 47.84 52.01 35.04 52.01"/>
      <polyline class="cls-1" points="25.04 52.01 11.44 52.01 11.44 24.21"/>
      <polyline class="cls-1" points="24.74 52.01 24.74 41.11 35.64 41.11 35.64 52.01"/>
    </g>
    <path class="cls-1" d="M-60.2-104.7" transform="translate(89.84 156.71)"/>
    <polyline class="cls-1" points="7.04 24.21 29.64 1.41 52.64 24.21"/>
    <path class="cls-1" d="M-60-119.2" transform="translate(89.84 156.71)"/>
    <polygon class="cls-1" points="40.54 12.31 47.84 18.31 47.84 5.01 40.54 5.01 40.54 12.31"/>
  </g>
  <g id="_Groupe_" data-name="&lt;Groupe&gt;">
    <path class="cls-2" d="M16.3-134.1h-4a2.69,2.69,0,0,0-2.7,2.7v2.9a2.69,2.69,0,0,0,2.7,2.7h4a19.93,19.93,0,0,0,2.6,6.2l-3,3a2.72,2.72,0,0,0,0,3.9l2,2a2.72,2.72,0,0,0,3.9,0l3-3a19.75,19.75,0,0,0,5.8,2.4v4a2.69,2.69,0,0,0,2.7,2.7h2.9a2.69,2.69,0,0,0,2.7-2.7v-4a17.75,17.75,0,0,0,6-2.5l2.9,2.8a2.72,2.72,0,0,0,3.9,0l2-2a2.72,2.72,0,0,0,0-3.9l-2.9-2.8a17.75,17.75,0,0,0,2.5-6h4a2.69,2.69,0,0,0,2.7-2.7v-2.9a2.69,2.69,0,0,0-2.7-2.7h-4a19.75,19.75,0,0,0-2.4-5.8l2.7-2.7a2.72,2.72,0,0,0,0-3.9l-2-2a2.72,2.72,0,0,0-3.9,0L45-145.7a19,19,0,0,0-6.2-2.6v-4a2.69,2.69,0,0,0-2.7-2.7H33.2a2.69,2.69,0,0,0-2.7,2.7v4a17.75,17.75,0,0,0-6,2.5l-2.9-2.9a2.72,2.72,0,0,0-3.9,0l-2,2a2.72,2.72,0,0,0,0,3.9l2.9,2.9A21.94,21.94,0,0,0,16.3-134.1Z" transform="translate(89.84 156.71)"/>
    <path class="cls-2" d="M44.2-126.5a9.89,9.89,0,0,0,.6-3.5,12.57,12.57,0,0,0-.5-3.3" transform="translate(89.84 156.71)"/>
    <path class="cls-2" d="M43.9-134.1c0.1,0.3.3,0.6,0.4,0.9" transform="translate(89.84 156.71)"/>
    <path class="cls-2" d="M43.9-125.8c0.1-.2.2-0.5,0.3-0.7" transform="translate(89.84 156.71)"/>
    <path class="cls-2" d="M43.9-134.1a10,10,0,0,0-4.9-4.8" transform="translate(89.84 156.71)"/>
    <path class="cls-2" d="M43.9-125.8A10,10,0,0,1,39-121" transform="translate(89.84 156.71)"/>
    <path class="cls-2" d="M38.5-139.1c0.2,0.1.4,0.1,0.6,0.2" transform="translate(89.84 156.71)"/>
    <path class="cls-2" d="M38.2-120.7c0.3-.1.5-0.2,0.8-0.3" transform="translate(89.84 156.71)"/>
    <path class="cls-2" d="M31.9-120.7a8.66,8.66,0,0,0,3.2.6,10.59,10.59,0,0,0,3.1-.5" transform="translate(89.84 156.71)"/>
    <path class="cls-2" d="M38.5-139.1a9.19,9.19,0,0,0-3.3-.6,10.3,10.3,0,0,0-3.5.6" transform="translate(89.84 156.71)"/>
    <path class="cls-2" d="M30.7-138.7c0.3-.1.6-0.3,0.9-0.4" transform="translate(89.84 156.71)"/>
    <path class="cls-2" d="M30.7-121.2a6.12,6.12,0,0,0,1.2.5" transform="translate(89.84 156.71)"/>
    <path class="cls-2" d="M30.7-138.7a10.07,10.07,0,0,0-4.4,4.5" transform="translate(89.84 156.71)"/>
    <path class="cls-2" d="M30.7-121.2a10.07,10.07,0,0,1-4.4-4.5" transform="translate(89.84 156.71)"/>
    <path class="cls-2" d="M25.9-133.1a10.38,10.38,0,0,1,.4-1" transform="translate(89.84 156.71)"/>
    <path class="cls-2" d="M25.9-126.6c0.1,0.3.2,0.5,0.3,0.8" transform="translate(89.84 156.71)"/>
    <path class="cls-2" d="M25.9-133.1a10.59,10.59,0,0,0-.5,3.1,8.81,8.81,0,0,0,.6,3.3" transform="translate(89.84 156.71)"/>
  </g>
  <g id="_Groupe_2" data-name="&lt;Groupe&gt;">
    <g>
      <polygon class="cls-2" points="55.84 86.91 55.84 126.71 55.04 126.71 4.64 126.71 3.94 126.71 3.94 86.91 55.84 86.91"/>
      <line class="cls-2" x1="34.54" y1="106.31" x2="55.04" y2="126.71"/>
      <line class="cls-2" x1="4.64" y1="126.71" x2="25.24" y2="106.31"/>
      <polyline class="cls-2" points="3.94 86.91 25.24 106.31 29.84 110.61"/>
      <polyline class="cls-2" points="55.84 86.91 34.54 106.31 29.84 110.61"/>
    </g>
  </g>
  <path class="cls-2" d="M54.3-26H5.7A1.63,1.63,0,0,1,4-27.7V-64.3A1.69,1.69,0,0,1,5.7-66H54.3A1.75,1.75,0,0,1,56-64.3v36.6A1.69,1.69,0,0,1,54.3-26Z" transform="translate(89.84 156.71)"/>
  <path class="cls-2" d="M38.3-66H21.6a1.69,1.69,0,0,1-1.7-1.7v-4.7a1.69,1.69,0,0,1,1.7-1.7H38.3A1.69,1.69,0,0,1,40-72.4v4.7A1.69,1.69,0,0,1,38.3-66Z" transform="translate(89.84 156.71)"/>
  <line class="cls-2" x1="93.84" y1="104.21" x2="145.84" y2="104.21"/>
  <rect class="cls-2" x="115.84" y="104.21" width="8" height="5.5"/>
  <g id="_Groupe_3" data-name="&lt;Groupe&gt;">
    <polygon class="cls-2" points="15.64 185.21 2.54 179.31 29.14 168.51 56.64 179.31 42.64 185.41 29.14 191.21 15.64 185.21"/>
    <path class="cls-2" d="M-47.2,28.7V42.5s-5.7,5.7-13.5,5.6c-9.9,0-13.5-5.5-13.5-5.5V28.5l13.4,6Z" transform="translate(89.84 156.71)"/>
  </g>
  <line class="cls-2" x1="6.94" y1="181.31" x2="6.94" y2="206.81"/>
  <g>
    <path class="cls-2" d="M29.9,17.4C28.6,7.8,16.7,2,9.9,10.2c-7.9,9.5,1,21.8,7.8,29,4.3,4.5,9.9,8.3,11.9,14.5" transform="translate(89.84 156.71)"/>
    <path class="cls-2" d="M30.1,17.4c1.4-9.6,13.2-15.4,20-7.2,7.9,9.5-1,21.8-7.8,29-4.3,4.5-9.9,8.3-11.9,14.5" transform="translate(89.84 156.71)"/>
  </g>
  <g>
    <line class="cls-3" x1="98.26" y1="280.14" x2="141.42" y2="280.14"/>
    <line class="cls-3" x1="98.26" y1="263.35" x2="141.42" y2="263.35"/>
    <line class="cls-3" x1="98.26" y1="246.56" x2="141.42" y2="246.56"/>
  </g>
</svg>
